<svg id="visual" viewBox="0 0 960 540" width="960" height="540" xmlns="http://www.w3.org/2000/svg" xmlns:xlink="http://www.w3.org/1999/xlink" version="1.1"><path d="M0 82L13.3 82C26.7 82 53.3 82 80 75.7C106.7 69.3 133.3 56.7 160 56.7C186.7 56.7 213.3 69.3 240 75.7C266.7 82 293.3 82 320 77.5C346.7 73 373.3 64 400 70.3C426.7 76.7 453.3 98.3 480 111.8C506.7 125.3 533.3 130.7 560 126.2C586.7 121.7 613.3 107.3 640 95.7C666.7 84 693.3 75 720 80.3C746.7 85.7 773.3 105.3 800 111.7C826.7 118 853.3 111 880 103.8C906.7 96.7 933.3 89.3 946.7 85.7L960 82L960 0L946.7 0C933.3 0 906.7 0 880 0C853.3 0 826.7 0 800 0C773.3 0 746.7 0 720 0C693.3 0 666.7 0 640 0C613.3 0 586.7 0 560 0C533.3 0 506.7 0 480 0C453.3 0 426.7 0 400 0C373.3 0 346.7 0 320 0C293.3 0 266.7 0 240 0C213.3 0 186.7 0 160 0C133.3 0 106.7 0 80 0C53.3 0 26.7 0 13.3 0L0 0Z" fill="#2a2a2a"></path><path d="M0 125L13.3 130.5C26.7 136 53.3 147 80 147C106.7 147 133.3 136 160 135C186.7 134 213.3 143 240 153C266.7 163 293.3 174 320 163.2C346.7 152.3 373.3 119.7 400 116.8C426.7 114 453.3 141 480 157.3C506.7 173.7 533.3 179.3 560 182.2C586.7 185 613.3 185 640 174.2C666.7 163.3 693.3 141.7 720 147.8C746.7 154 773.3 188 800 200.5C826.7 213 853.3 204 880 194.2C906.7 184.3 933.3 173.7 946.7 168.3L960 163L960 80L946.7 83.7C933.3 87.3 906.7 94.7 880 101.8C853.3 109 826.7 116 800 109.7C773.3 103.3 746.7 83.7 720 78.3C693.3 73 666.7 82 640 93.7C613.3 105.3 586.7 119.7 560 124.2C533.3 128.7 506.7 123.3 480 109.8C453.3 96.3 426.7 74.7 400 68.3C373.3 62 346.7 71 320 75.5C293.3 80 266.7 80 240 73.7C213.3 67.3 186.7 54.7 160 54.7C133.3 54.7 106.7 67.3 80 73.7C53.3 80 26.7 80 13.3 80L0 80Z" fill="#313131"></path><path d="M0 179L13.3 186.2C26.7 193.3 53.3 207.7 80 208.7C106.7 209.7 133.3 197.3 160 192C186.7 186.7 213.3 188.3 240 198.2C266.7 208 293.3 226 320 217C346.7 208 373.3 172 400 166.7C426.7 161.3 453.3 186.7 480 202.8C506.7 219 533.3 226 560 232.2C586.7 238.3 613.3 243.7 640 230.2C666.7 216.7 693.3 184.3 720 184.3C746.7 184.3 773.3 216.7 800 236.5C826.7 256.3 853.3 263.7 880 260.2C906.7 256.7 933.3 242.3 946.7 235.2L960 228L960 161L946.7 166.3C933.3 171.7 906.7 182.3 880 192.2C853.3 202 826.7 211 800 198.5C773.3 186 746.7 152 720 145.8C693.3 139.7 666.7 161.3 640 172.2C613.3 183 586.7 183 560 180.2C533.3 177.3 506.7 171.7 480 155.3C453.3 139 426.7 112 400 114.8C373.3 117.7 346.7 150.3 320 161.2C293.3 172 266.7 161 240 151C213.3 141 186.7 132 160 133C133.3 134 106.7 145 80 145C53.3 145 26.7 134 13.3 128.5L0 123Z" fill="#393939"></path><path d="M0 206L13.3 220.5C26.7 235 53.3 264 80 266.7C106.7 269.3 133.3 245.7 160 241.2C186.7 236.7 213.3 251.3 240 261.3C266.7 271.3 293.3 276.7 320 264C346.7 251.3 373.3 220.7 400 221.5C426.7 222.3 453.3 254.7 480 272.7C506.7 290.7 533.3 294.3 560 298C586.7 301.7 613.3 305.3 640 294.5C666.7 283.7 693.3 258.3 720 253.8C746.7 249.3 773.3 265.7 800 280.2C826.7 294.7 853.3 307.3 880 303.7C906.7 300 933.3 280 946.7 270L960 260L960 226L946.7 233.2C933.3 240.3 906.7 254.7 880 258.2C853.3 261.7 826.7 254.3 800 234.5C773.3 214.7 746.7 182.3 720 182.3C693.3 182.3 666.7 214.7 640 228.2C613.3 241.7 586.7 236.3 560 230.2C533.3 224 506.7 217 480 200.8C453.3 184.7 426.7 159.3 400 164.7C373.3 170 346.7 206 320 215C293.3 224 266.7 206 240 196.2C213.3 186.3 186.7 184.7 160 190C133.3 195.3 106.7 207.7 80 206.7C53.3 205.7 26.7 191.3 13.3 184.2L0 177Z" fill="#393939"></path><path d="M0 325L13.3 339.3C26.7 353.7 53.3 382.3 80 387.7C106.7 393 133.3 375 160 380.5C186.7 386 213.3 415 240 428.5C266.7 442 293.3 440 320 436.3C346.7 432.7 373.3 427.3 400 428.3C426.7 429.3 453.3 436.7 480 446.7C506.7 456.7 533.3 469.3 560 473.8C586.7 478.3 613.3 474.7 640 462C666.7 449.3 693.3 427.7 720 416C746.7 404.3 773.3 402.7 800 407.2C826.7 411.7 853.3 422.3 880 421.3C906.7 420.3 933.3 407.7 946.7 401.3L960 395L960 258L946.7 268C933.3 278 906.7 298 880 301.7C853.3 305.3 826.7 292.7 800 278.2C773.3 263.7 746.7 247.3 720 251.8C693.3 256.3 666.7 281.7 640 292.5C613.3 303.3 586.7 299.7 560 296C533.3 292.3 506.7 288.7 480 270.7C453.3 252.7 426.7 220.3 400 219.5C373.3 218.7 346.7 249.3 320 262C293.3 274.7 266.7 269.3 240 259.3C213.3 249.3 186.7 234.7 160 239.2C133.3 243.7 106.7 267.3 80 264.7C53.3 262 26.7 233 13.3 218.5L0 204Z" fill="#313131"></path><path d="M0 541L13.3 541C26.7 541 53.3 541 80 541C106.7 541 133.3 541 160 541C186.7 541 213.3 541 240 541C266.7 541 293.3 541 320 541C346.7 541 373.3 541 400 541C426.7 541 453.3 541 480 541C506.7 541 533.3 541 560 541C586.7 541 613.3 541 640 541C666.7 541 693.3 541 720 541C746.7 541 773.3 541 800 541C826.7 541 853.3 541 880 541C906.7 541 933.3 541 946.7 541L960 541L960 393L946.7 399.3C933.3 405.7 906.7 418.3 880 419.3C853.3 420.3 826.7 409.7 800 405.2C773.3 400.7 746.7 402.3 720 414C693.3 425.7 666.7 447.3 640 460C613.3 472.7 586.7 476.3 560 471.8C533.3 467.3 506.7 454.7 480 444.7C453.3 434.7 426.7 427.3 400 426.3C373.3 425.3 346.7 430.7 320 434.3C293.3 438 266.7 440 240 426.5C213.3 413 186.7 384 160 378.5C133.3 373 106.7 391 80 385.7C53.3 380.3 26.7 351.7 13.3 337.3L0 323Z" fill="#2a2a2a"></path></svg>